<?xml version="1.0" standalone="no"?>
<!DOCTYPE svg PUBLIC "-//W3C//DTD SVG 20010904//EN"
 "http://www.w3.org/TR/2001/REC-SVG-20010904/DTD/svg10.dtd">
<svg version="1.0" xmlns="http://www.w3.org/2000/svg"
 width="410.000000pt" height="307.000000pt" viewBox="0 0 410.000000 307.000000"
 preserveAspectRatio="xMidYMid meet">

<g transform="translate(0.000000,307.000000) scale(0.100000,-0.100000)"
fill="#000000" stroke="none">
<path d="M0 1535 l0 -1535 2050 0 2050 0 0 1535 0 1535 -2050 0 -2050 0 0
-1535z m1672 433 l-22 -22 -63 62 c-34 34 -67 62 -72 62 -6 0 -69 -59 -140
-130 l-130 -130 135 -135 135 -135 135 135 134 134 -24 26 -24 25 22 22 22 22
50 -49 50 -50 -182 -182 -183 -183 -182 182 -183 183 182 182 183 183 90 -90
90 -90 -23 -22z m400 0 l-22 -22 -63 62 c-34 34 -67 62 -72 62 -6 0 -69 -58
-140 -130 l-129 -129 24 -26 23 -25 -23 -25 -24 -25 -48 47 -48 48 182 182
183 183 90 -90 90 -90 -23 -22z m558 -212 c-48 -49 -49 -50 -70 -31 -25 23
-25 33 2 62 l22 24 -129 129 c-71 72 -134 130 -140 130 -13 0 -265 -252 -265
-266 0 -6 9 -19 20 -29 l20 -18 -22 -24 -22 -23 -48 47 -48 48 182 182 183
183 182 -182 183 -183 -50 -49z m440 49 c0 -6 -80 -90 -178 -188 l-177 -177
-183 183 -182 182 50 50 50 49 22 -22 22 -22 -22 -23 c-12 -13 -22 -28 -22
-33 0 -5 59 -68 130 -139 l130 -130 137 138 138 137 -130 130 c-71 71 -134
130 -140 130 -5 0 -38 -28 -72 -62 l-63 -62 -22 22 -23 22 90 90 90 90 177
-177 c98 -98 178 -182 178 -188z m-837 47 l47 -47 -183 -183 -182 -182 -90 90
c-88 88 -89 89 -70 110 10 11 23 20 29 20 6 0 38 -27 71 -60 l60 -60 135 135
134 134 -24 26 c-23 24 -23 25 -5 45 10 11 21 20 24 20 4 0 28 -21 54 -48z
m172 -322 l-90 -90 -90 90 -90 90 23 22 22 22 65 -64 65 -65 67 68 68 67 25
-25 25 -25 -90 -90z m-1055 -305 c0 -22 -4 -25 -35 -25 l-35 0 0 -90 0 -90
-30 0 -30 0 0 90 0 90 -35 0 c-31 0 -35 3 -35 25 l0 25 100 0 100 0 0 -25z
m200 0 c0 -24 -3 -25 -55 -25 -48 0 -55 -2 -55 -20 0 -17 7 -20 51 -20 47 0
50 -2 47 -22 -3 -20 -10 -23 -50 -26 -40 -3 -48 -6 -48 -23 0 -17 7 -19 61
-19 57 0 60 -1 57 -22 -3 -22 -8 -23 -90 -26 l-88 -3 0 116 0 115 85 0 c84 0
85 0 85 -25z m222 9 l31 -16 -22 -21 c-16 -17 -23 -19 -33 -9 -26 26 -85 11
-99 -24 -21 -57 28 -104 86 -83 27 10 37 10 50 -1 14 -12 14 -14 -1 -31 -41
-46 -150 -31 -185 24 -30 47 -21 112 20 149 37 33 102 38 153 12z m118 -31 l0
-48 46 48 c34 35 52 47 75 47 16 0 29 -3 29 -7 0 -4 -19 -26 -42 -50 l-41 -42
46 -60 c26 -33 47 -62 47 -65 0 -3 -15 -6 -33 -6 -27 0 -40 8 -66 40 -26 33
-35 39 -47 29 -8 -6 -14 -24 -14 -40 0 -26 -4 -29 -30 -29 l-30 0 0 115 0 115
30 0 c29 0 30 -1 30 -47z m361 28 c24 -20 24 -20 4 -35 -24 -18 -32 -19 -40
-6 -10 17 -61 11 -79 -9 -26 -28 -18 -82 15 -100 22 -12 29 -12 57 1 29 15 32
15 48 -3 9 -11 15 -21 13 -22 -51 -41 -99 -47 -155 -21 -78 37 -84 148 -12
198 33 23 120 21 149 -3z m245 -15 c29 -29 34 -41 34 -79 0 -137 -197 -162
-240 -31 -26 78 31 144 124 144 41 0 53 -5 82 -34z m161 -26 c18 -30 36 -56
41 -58 4 -1 23 25 42 58 29 50 39 60 63 60 l27 0 0 -115 0 -115 -30 0 c-28 0
-29 1 -32 58 l-3 57 -24 -42 c-31 -55 -53 -55 -85 -1 l-25 42 -3 -55 c-3 -51
-5 -54 -30 -57 l-28 -3 0 116 0 116 27 -3 c20 -2 35 -16 60 -58z m387 39 c21
-17 26 -29 26 -64 0 -52 -23 -73 -89 -82 -34 -5 -40 -9 -43 -32 -2 -22 -8 -26
-33 -26 l-30 0 -3 113 -3 112 74 0 c60 0 79 -4 101 -21z"/>
<path d="M2367 1182 c-23 -25 -21 -68 3 -92 23 -23 30 -24 65 -8 54 24 39 110
-21 116 -20 2 -36 -4 -47 -16z"/>
<path d="M2940 1166 c0 -40 20 -48 54 -23 29 21 16 51 -22 55 -31 3 -32 2 -32
-32z"/>
</g>
</svg>
